<?xml version="1.0"?>
<svg id="Layer_2" data-name="Layer 2" xmlns="http://www.w3.org/2000/svg" viewBox="0 0 88.57 135.85" fill="#F5F5F5">
  <defs>
    
  </defs>
  <g id="Layer_1-2" data-name="Layer 1">
    <g>
      <path class="cls-1" d="m56.52,62.33c-.61-.3-1.23-.6-1.86-.88-4.75-2.15-10-3.76-15.73-4.72v-28.74c-.24-14.2-21.36-14.2-21.6,0,.12,7.1,5.46,10.65,10.8,10.65v-.06s0,17.13,0,17.13h0c-13.93-.06-27.81-9.34-28.13-27.86.63-37.14,55.89-37.15,56.52,0v84.41-.06c-8.66.1-17.4-5.6-17.59-17.11v-35.02c5.94-.92,12.16-.12,17.59,2.4v-.14Z"></path>
      <path class="cls-1" d="m88.57,129.66h0v-40.09c-3.85-2.57-7.27-5.36-10.26-8.32,0,0,0,0,0,0-1.36-1.34-2.63-2.72-3.82-4.12-1.12-1.32-2.16-2.67-3.13-4.04-.06-.08-.12-.16-.17-.24v-.21c.07.1.15.21.23.31,0,0,0,0,0,0,.04.05.07.1.11.15,1.03,1.36,2.19,2.63,3.45,3.79.03.03.07.06.1.09,0,0,0,0,0,0,3.8,3.47,8.5,5.99,13.49,7.23v-28.23c-.1-5.73-2.31-10.02-5.58-12.88l.04.08s-.03-.02-.04-.03c-2.87-2.5-6.54-3.9-10.31-4.19-.5-.04-1-.06-1.49-.06v79.84c.04,2.2.38,4.18.98,5.95h0c2.34,6.94,8.52,10.64,14.97,11.11.48.03.96.05,1.44.05v-6.2Z"></path>
    </g>
  </g>
</svg>